<svg xmlns="http://www.w3.org/2000/svg" version="1.1" viewBox="-5.0 -10.0 110.0 135.0">
 <path d="m19.113 15.984h70.488c3.793 0 3.793 5.7617 0 5.7617h-5.8359v61.258c0 7.1992-5.8789 13.074-13.074 13.074h-41.383c-7.1953 0-13.074-5.8789-13.074-13.074v-61.258h-5.8359c-3.793 0-3.793-5.7617 0-5.7617zm22.367-6.3047c-3.793 0-3.793-5.7617 0-5.7617l17.039 0.003906c3.793 0 3.793 5.7617 0 5.7617zm36.527 12.066h-56.016v61.258c0 4.0195 3.2969 7.3164 7.3164 7.3164h41.379c4.0195 0 7.3164-3.2969 7.3164-7.3164z" fill-rule="evenodd"/>
<text x="0.0" y="117.5" font-size="5.0" font-weight="bold" font-family="Arbeit Regular, Helvetica, Arial-Unicode, Arial, Sans-serif" fill="#000000">Created by Melisa Lutfiani</text><text x="0.0" y="122.5" font-size="5.0" font-weight="bold" font-family="Arbeit Regular, Helvetica, Arial-Unicode, Arial, Sans-serif" fill="#000000">from Noun Project</text></svg>