<svg xmlns="http://www.w3.org/2000/svg" version="1.1" viewBox="-5.0 -10.0 110.0 135.0">
 <path d="m73.059 12.41c-3.8789 0-7.5312 1.5117-10.27 4.2617l-41.141 41.129c-5.6289 5.6289-8.7695 24.141-9.1914 26.781-0.17188 0.82031 0.078125 1.6797 0.67969 2.2812 0.48047 0.48047 1.1211 0.73047 1.7695 0.73047 0.19141 0 0.37109-0.019531 0.55859-0.058594 2.8281-0.46094 21.129-3.5781 26.73-9.1797l41.141-41.141c2.75-2.7383 4.2617-6.3906 4.2617-10.281s-1.5117-7.5312-4.2617-10.27c-2.75-2.75-6.3906-4.2617-10.281-4.2617zm6.7422 21.27-41.141 41.141c-2.9609 2.9609-13.109 5.7188-20.66 7.1914 1.4688-7.5586 4.2188-17.699 7.1914-20.66l41.141-41.141c1.8008-1.8008 4.1914-2.7891 6.7383-2.7891 2.5508 0 4.9414 0.98828 6.7383 2.7891 1.8008 1.8008 2.7891 4.1914 2.7891 6.7305 0 2.5391-0.98828 4.9414-2.7891 6.7383z"/>
<text x="0.0" y="117.5" font-size="5.0" font-weight="bold" font-family="Arbeit Regular, Helvetica, Arial-Unicode, Arial, Sans-serif" fill="#000000">Created by SM Rony</text><text x="0.0" y="122.5" font-size="5.0" font-weight="bold" font-family="Arbeit Regular, Helvetica, Arial-Unicode, Arial, Sans-serif" fill="#000000">from Noun Project</text></svg>