<svg xmlns="http://www.w3.org/2000/svg" data-name="Layer 1" viewBox="0 0 100 125" x="0px" y="0px">
  <title>Edit</title>
  <path d="M69.51,19a11.41,11.41,0,0,0-8.12,3.36L40.57,43.19A18.87,18.87,0,0,0,35,56.63V65h8.37a18.87,18.87,0,0,0,13.43-5.57L77.64,38.61A11.49,11.49,0,0,0,69.51,19Zm3.88,15.36L52.57,55.19A12.92,12.92,0,0,1,43.37,59H41V56.63a12.92,12.92,0,0,1,3.81-9.19L65.64,26.61a5.49,5.49,0,0,1,7.76,7.76Z"/>
  <path d="M30,81H66A11,11,0,0,0,77,70V54H71V70a5,5,0,0,1-5,5H30a5,5,0,0,1-5-5V34a5,5,0,0,1,5-5H46V23H30A11,11,0,0,0,19,34V70A11,11,0,0,0,30,81Z"/>
</svg>
